<svg width="85" height="145" viewBox="0 0 85 145" fill="none" xmlns="http://www.w3.org/2000/svg">
<path d="M11.4262 123.624C11.8582 123.016 12.4502 122.512 13.2022 122.112C13.9702 121.696 14.8422 121.488 15.8182 121.488C16.9542 121.488 17.9782 121.768 18.8902 122.328C19.8182 122.888 20.5462 123.688 21.0742 124.728C21.6182 125.752 21.8902 126.944 21.8902 128.304C21.8902 129.664 21.6182 130.872 21.0742 131.928C20.5462 132.968 19.8182 133.776 18.8902 134.352C17.9782 134.928 16.9542 135.216 15.8182 135.216C14.8422 135.216 13.9782 135.016 13.2262 134.616C12.4902 134.216 11.8902 133.712 11.4262 133.104V141.336H8.06616V121.704H11.4262V123.624ZM18.4582 128.304C18.4582 127.504 18.2902 126.816 17.9542 126.24C17.6342 125.648 17.2022 125.2 16.6582 124.896C16.1302 124.592 15.5542 124.44 14.9302 124.44C14.3222 124.44 13.7462 124.6 13.2022 124.92C12.6742 125.224 12.2422 125.672 11.9062 126.264C11.5862 126.856 11.4262 127.552 11.4262 128.352C11.4262 129.152 11.5862 129.848 11.9062 130.44C12.2422 131.032 12.6742 131.488 13.2022 131.808C13.7462 132.112 14.3222 132.264 14.9302 132.264C15.5542 132.264 16.1302 132.104 16.6582 131.784C17.2022 131.464 17.6342 131.008 17.9542 130.416C18.2902 129.824 18.4582 129.12 18.4582 128.304ZM27.6918 123.768C28.1238 123.064 28.6838 122.512 29.3718 122.112C30.0758 121.712 30.8758 121.512 31.7718 121.512V125.04H30.8838C29.8278 125.04 29.0278 125.288 28.4838 125.784C27.9558 126.28 27.6918 127.144 27.6918 128.376V135H24.3318V121.704H27.6918V123.768ZM33.1709 128.304C33.1709 126.96 33.4349 125.768 33.9629 124.728C34.5069 123.688 35.2349 122.888 36.1469 122.328C37.0749 121.768 38.1069 121.488 39.2429 121.488C40.2349 121.488 41.0989 121.688 41.8349 122.088C42.5869 122.488 43.1869 122.992 43.6349 123.6V121.704H47.0189V135H43.6349V133.056C43.2029 133.68 42.6029 134.2 41.8349 134.616C41.0829 135.016 40.2109 135.216 39.2189 135.216C38.0989 135.216 37.0749 134.928 36.1469 134.352C35.2349 133.776 34.5069 132.968 33.9629 131.928C33.4349 130.872 33.1709 129.664 33.1709 128.304ZM43.6349 128.352C43.6349 127.536 43.4749 126.84 43.1549 126.264C42.8349 125.672 42.4029 125.224 41.8589 124.92C41.3149 124.6 40.7309 124.44 40.1069 124.44C39.4829 124.44 38.9069 124.592 38.3789 124.896C37.8509 125.2 37.4189 125.648 37.0829 126.24C36.7629 126.816 36.6029 127.504 36.6029 128.304C36.6029 129.104 36.7629 129.808 37.0829 130.416C37.4189 131.008 37.8509 131.464 38.3789 131.784C38.9229 132.104 39.4989 132.264 40.1069 132.264C40.7309 132.264 41.3149 132.112 41.8589 131.808C42.4029 131.488 42.8349 131.04 43.1549 130.464C43.4749 129.872 43.6349 129.168 43.6349 128.352ZM52.0045 120.12C51.4125 120.12 50.9165 119.936 50.5165 119.568C50.1325 119.184 49.9405 118.712 49.9405 118.152C49.9405 117.592 50.1325 117.128 50.5165 116.76C50.9165 116.376 51.4125 116.184 52.0045 116.184C52.5965 116.184 53.0845 116.376 53.4685 116.76C53.8685 117.128 54.0685 117.592 54.0685 118.152C54.0685 118.712 53.8685 119.184 53.4685 119.568C53.0845 119.936 52.5965 120.12 52.0045 120.12ZM53.6605 121.704V135H50.3005V121.704H53.6605ZM56.1162 128.304C56.1162 126.96 56.3802 125.768 56.9082 124.728C57.4522 123.688 58.1802 122.888 59.0922 122.328C60.0202 121.768 61.0522 121.488 62.1882 121.488C63.1802 121.488 64.0442 121.688 64.7802 122.088C65.5322 122.488 66.1322 122.992 66.5802 123.6V121.704H69.9642V135H66.5802V133.056C66.1482 133.68 65.5482 134.2 64.7802 134.616C64.0282 135.016 63.1562 135.216 62.1642 135.216C61.0442 135.216 60.0202 134.928 59.0922 134.352C58.1802 133.776 57.4522 132.968 56.9082 131.928C56.3802 130.872 56.1162 129.664 56.1162 128.304ZM66.5802 128.352C66.5802 127.536 66.4202 126.84 66.1002 126.264C65.7802 125.672 65.3482 125.224 64.8042 124.92C64.2602 124.6 63.6762 124.44 63.0522 124.44C62.4282 124.44 61.8522 124.592 61.3242 124.896C60.7962 125.2 60.3642 125.648 60.0282 126.24C59.7082 126.816 59.5482 127.504 59.5482 128.304C59.5482 129.104 59.7082 129.808 60.0282 130.416C60.3642 131.008 60.7962 131.464 61.3242 131.784C61.8682 132.104 62.4442 132.264 63.0522 132.264C63.6762 132.264 64.2602 132.112 64.8042 131.808C65.3482 131.488 65.7802 131.04 66.1002 130.464C66.4202 129.872 66.5802 129.168 66.5802 128.352Z" fill="#47585B"/>
<path d="M81.7033 78.3348H36.6049C39.0502 70.6885 40.4216 60.797 40.4216 50.4554C40.4216 27.5194 26.2201 9.24095 25.6156 8.47424C25.0718 7.7845 24.2422 7.38211 23.3641 7.38211C22.4861 7.38211 21.6564 7.7845 21.1126 8.47424C20.5082 9.24095 6.3066 27.5197 6.3066 50.4554C6.3066 60.797 7.67776 70.6885 10.1233 78.3348H2.86682C1.28359 78.3348 0 79.6184 0 81.2016C0 82.7848 1.28359 84.0684 2.86682 84.0684H81.7033C83.2865 84.0684 84.5701 82.7848 84.5701 81.2016C84.5701 79.6184 83.2863 78.3348 81.7033 78.3348ZM30.5499 78.3348H26.2309V20.1204C30.0786 27.1908 34.688 38.2145 34.688 50.4554C34.688 61.0746 33.1909 71.0929 30.5499 78.3348ZM12.0405 50.4554C12.0405 38.2139 16.6503 27.1903 20.4976 20.1204V78.3348H16.1786C13.5376 71.0929 12.0405 61.0746 12.0405 50.4554Z" fill="#FFBA08"/>
<path d="M76.2585 23.0058C76.2585 15.654 70.2776 9.67311 62.9258 9.67311C55.574 9.67311 49.5931 15.654 49.5931 23.0058C49.5931 30.3576 55.574 36.3385 62.9258 36.3385C70.2776 36.3385 76.2585 30.3576 76.2585 23.0058ZM62.9258 30.6052C58.7356 30.6052 55.3265 27.196 55.3265 23.0058C55.3265 18.8156 58.7356 15.4065 62.9258 15.4065C67.116 15.4065 70.5251 18.8156 70.5251 23.0058C70.5251 27.196 67.116 30.6052 62.9258 30.6052Z" fill="#FFBA08"/>
<path d="M62.9257 9.04315C64.509 9.04315 65.7925 7.75957 65.7925 6.17633V3.79776C65.7925 2.21453 64.509 0.930946 62.9257 0.930946C61.3425 0.930946 60.0589 2.21453 60.0589 3.79776V6.17633C60.0589 7.75957 61.3425 9.04315 62.9257 9.04315Z" fill="#FFBA08"/>
<path d="M60.0589 39.8347V42.2132C60.0589 43.7965 61.3425 45.08 62.9257 45.08C64.509 45.08 65.7925 43.7965 65.7925 42.2132V39.8347C65.7925 38.2514 64.509 36.9678 62.9257 36.9678C61.3425 36.9681 60.0589 38.2517 60.0589 39.8347Z" fill="#FFBA08"/>
<path d="M76.8878 23.0058C76.8878 24.589 78.1714 25.8726 79.7546 25.8726H82.1332C83.7164 25.8726 85 24.589 85 23.0058C85 21.4226 83.7164 20.139 82.1332 20.139H79.7546C78.1716 20.139 76.8878 21.4229 76.8878 23.0058Z" fill="#FFBA08"/>
<path d="M43.7183 25.8726H46.0969C47.6801 25.8726 48.9637 24.589 48.9637 23.0058C48.9637 21.4226 47.6801 20.139 46.0969 20.139H43.7183C42.1351 20.139 40.8515 21.4226 40.8515 23.0058C40.8515 24.589 42.1351 25.8726 43.7183 25.8726Z" fill="#FFBA08"/>
<path d="M74.8255 13.9729C75.5593 13.9729 76.2928 13.693 76.8526 13.1332L78.5345 11.4512C79.6541 10.3316 79.6541 8.51631 78.5345 7.397C77.4147 6.27769 75.5999 6.27769 74.4803 7.397L72.7983 9.07897C71.6787 10.1986 71.6787 12.0139 72.7983 13.1332C73.3581 13.693 74.0917 13.9729 74.8255 13.9729Z" fill="#FFBA08"/>
<path d="M48.9989 32.8784L47.317 34.5604C46.1974 35.68 46.1974 37.4953 47.317 38.6146C47.8768 39.1741 48.6103 39.4543 49.3441 39.4543C50.0779 39.4543 50.8114 39.1744 51.3712 38.6146L53.0532 36.9326C54.1728 35.813 54.1728 33.9977 53.0532 32.8784C51.9336 31.7591 50.1188 31.7591 48.9989 32.8784Z" fill="#FFBA08"/>
<path d="M74.4803 38.6146C75.0401 39.1741 75.7736 39.4543 76.5074 39.4543C77.2412 39.4543 77.9747 39.1744 78.5345 38.6146C79.6541 37.495 79.6541 35.6797 78.5345 34.5604L76.8526 32.8784C75.7327 31.7591 73.9179 31.7591 72.7983 32.8784C71.6787 33.998 71.6787 35.8133 72.7983 36.9326L74.4803 38.6146Z" fill="#FFBA08"/>
<path d="M48.9989 13.1335C49.5587 13.693 50.2923 13.9732 51.0261 13.9732C51.7599 13.9732 52.4934 13.6933 53.0532 13.1335C54.1728 12.0139 54.1728 10.1986 53.0532 9.07926L51.3712 7.39729C50.2513 6.27798 48.4366 6.27798 47.317 7.39729C46.1974 8.51688 46.1974 10.3322 47.317 11.4515L48.9989 13.1335Z" fill="#FFBA08"/>
</svg>
