<svg width="158" height="145" viewBox="0 0 158 145" fill="none" xmlns="http://www.w3.org/2000/svg">
<path d="M7.46172 131.904L10.8217 121.704H14.3977L9.47772 135H5.39772L0.501719 121.704H4.10172L7.46172 131.904ZM17.9889 120.12C17.3969 120.12 16.9009 119.936 16.5009 119.568C16.1169 119.184 15.9249 118.712 15.9249 118.152C15.9249 117.592 16.1169 117.128 16.5009 116.76C16.9009 116.376 17.3969 116.184 17.9889 116.184C18.5809 116.184 19.0689 116.376 19.4529 116.76C19.8529 117.128 20.0529 117.592 20.0529 118.152C20.0529 118.712 19.8529 119.184 19.4529 119.568C19.0689 119.936 18.5809 120.12 17.9889 120.12ZM19.6449 121.704V135H16.2849V121.704H19.6449ZM22.1006 128.304C22.1006 126.96 22.3646 125.768 22.8926 124.728C23.4366 123.688 24.1726 122.888 25.1006 122.328C26.0286 121.768 27.0606 121.488 28.1966 121.488C29.0606 121.488 29.8846 121.68 30.6686 122.064C31.4526 122.432 32.0766 122.928 32.5406 123.552V117.24H35.9486V135H32.5406V133.032C32.1246 133.688 31.5406 134.216 30.7886 134.616C30.0366 135.016 29.1646 135.216 28.1726 135.216C27.0526 135.216 26.0286 134.928 25.1006 134.352C24.1726 133.776 23.4366 132.968 22.8926 131.928C22.3646 130.872 22.1006 129.664 22.1006 128.304ZM32.5646 128.352C32.5646 127.536 32.4046 126.84 32.0846 126.264C31.7646 125.672 31.3326 125.224 30.7886 124.92C30.2446 124.6 29.6606 124.44 29.0366 124.44C28.4126 124.44 27.8366 124.592 27.3086 124.896C26.7806 125.2 26.3486 125.648 26.0126 126.24C25.6926 126.816 25.5326 127.504 25.5326 128.304C25.5326 129.104 25.6926 129.808 26.0126 130.416C26.3486 131.008 26.7806 131.464 27.3086 131.784C27.8526 132.104 28.4286 132.264 29.0366 132.264C29.6606 132.264 30.2446 132.112 30.7886 131.808C31.3326 131.488 31.7646 131.04 32.0846 130.464C32.4046 129.872 32.5646 129.168 32.5646 128.352ZM38.3662 128.304C38.3662 126.96 38.6302 125.768 39.1582 124.728C39.7022 123.688 40.4302 122.888 41.3422 122.328C42.2702 121.768 43.3022 121.488 44.4382 121.488C45.4302 121.488 46.2942 121.688 47.0302 122.088C47.7822 122.488 48.3822 122.992 48.8302 123.6V121.704H52.2142V135H48.8302V133.056C48.3982 133.68 47.7982 134.2 47.0302 134.616C46.2782 135.016 45.4062 135.216 44.4142 135.216C43.2942 135.216 42.2702 134.928 41.3422 134.352C40.4302 133.776 39.7022 132.968 39.1582 131.928C38.6302 130.872 38.3662 129.664 38.3662 128.304ZM48.8302 128.352C48.8302 127.536 48.6702 126.84 48.3502 126.264C48.0302 125.672 47.5982 125.224 47.0542 124.92C46.5102 124.6 45.9262 124.44 45.3022 124.44C44.6782 124.44 44.1022 124.592 43.5742 124.896C43.0462 125.2 42.6142 125.648 42.2782 126.24C41.9582 126.816 41.7982 127.504 41.7982 128.304C41.7982 129.104 41.9582 129.808 42.2782 130.416C42.6142 131.008 43.0462 131.464 43.5742 131.784C44.1182 132.104 44.6942 132.264 45.3022 132.264C45.9262 132.264 46.5102 132.112 47.0542 131.808C47.5982 131.488 48.0302 131.04 48.3502 130.464C48.6702 129.872 48.8302 129.168 48.8302 128.352ZM68.5826 121.512C70.1666 121.512 71.4466 122.016 72.4226 123.024C73.3986 124.016 73.8866 125.408 73.8866 127.2V135H70.5266V127.656C70.5266 126.6 70.2626 125.792 69.7346 125.232C69.2066 124.656 68.4866 124.368 67.5746 124.368C66.6466 124.368 65.9106 124.656 65.3666 125.232C64.8386 125.792 64.5746 126.6 64.5746 127.656V135H61.2146V121.704H64.5746V123.36C65.0226 122.784 65.5906 122.336 66.2786 122.016C66.9826 121.68 67.7506 121.512 68.5826 121.512ZM82.9858 135.216C81.7058 135.216 80.5538 134.936 79.5298 134.376C78.5058 133.8 77.6978 132.992 77.1058 131.952C76.5298 130.912 76.2418 129.712 76.2418 128.352C76.2418 126.992 76.5378 125.792 77.1298 124.752C77.7378 123.712 78.5618 122.912 79.6018 122.352C80.6418 121.776 81.8018 121.488 83.0818 121.488C84.3618 121.488 85.5218 121.776 86.5618 122.352C87.6018 122.912 88.4178 123.712 89.0098 124.752C89.6178 125.792 89.9218 126.992 89.9218 128.352C89.9218 129.712 89.6098 130.912 88.9858 131.952C88.3778 132.992 87.5458 133.8 86.4898 134.376C85.4498 134.936 84.2818 135.216 82.9858 135.216ZM82.9858 132.288C83.5938 132.288 84.1618 132.144 84.6898 131.856C85.2338 131.552 85.6658 131.104 85.9858 130.512C86.3058 129.92 86.4658 129.2 86.4658 128.352C86.4658 127.088 86.1298 126.12 85.4578 125.448C84.8018 124.76 83.9938 124.416 83.0338 124.416C82.0738 124.416 81.2658 124.76 80.6098 125.448C79.9698 126.12 79.6498 127.088 79.6498 128.352C79.6498 129.616 79.9618 130.592 80.5858 131.28C81.2258 131.952 82.0258 132.288 82.9858 132.288ZM96.2985 124.464V130.896C96.2985 131.344 96.4025 131.672 96.6105 131.88C96.8345 132.072 97.2025 132.168 97.7145 132.168H99.2745V135H97.1625C94.3305 135 92.9145 133.624 92.9145 130.872V124.464H91.3305V121.704H92.9145V118.416H96.2985V121.704H99.2745V124.464H96.2985ZM114.243 121.704V135H110.859V133.32C110.427 133.896 109.859 134.352 109.155 134.688C108.467 135.008 107.715 135.168 106.899 135.168C105.859 135.168 104.939 134.952 104.139 134.52C103.339 134.072 102.707 133.424 102.243 132.576C101.795 131.712 101.571 130.688 101.571 129.504V121.704H104.931V129.024C104.931 130.08 105.195 130.896 105.723 131.472C106.251 132.032 106.971 132.312 107.883 132.312C108.811 132.312 109.539 132.032 110.067 131.472C110.595 130.896 110.859 130.08 110.859 129.024V121.704H114.243ZM120.918 123.768C121.35 123.064 121.91 122.512 122.598 122.112C123.302 121.712 124.102 121.512 124.998 121.512V125.04H124.11C123.054 125.04 122.254 125.288 121.71 125.784C121.182 126.28 120.918 127.144 120.918 128.376V135H117.558V121.704H120.918V123.768ZM134.629 121.512C136.213 121.512 137.493 122.016 138.469 123.024C139.445 124.016 139.933 125.408 139.933 127.2V135H136.573V127.656C136.573 126.6 136.309 125.792 135.781 125.232C135.253 124.656 134.533 124.368 133.621 124.368C132.693 124.368 131.957 124.656 131.413 125.232C130.885 125.792 130.621 126.6 130.621 127.656V135H127.261V121.704H130.621V123.36C131.069 122.784 131.637 122.336 132.325 122.016C133.029 121.68 133.797 121.512 134.629 121.512ZM142.265 128.304C142.265 126.96 142.529 125.768 143.057 124.728C143.601 123.688 144.329 122.888 145.241 122.328C146.169 121.768 147.201 121.488 148.337 121.488C149.329 121.488 150.193 121.688 150.929 122.088C151.681 122.488 152.281 122.992 152.729 123.6V121.704H156.113V135H152.729V133.056C152.297 133.68 151.697 134.2 150.929 134.616C150.177 135.016 149.305 135.216 148.313 135.216C147.193 135.216 146.169 134.928 145.241 134.352C144.329 133.776 143.601 132.968 143.057 131.928C142.529 130.872 142.265 129.664 142.265 128.304ZM152.729 128.352C152.729 127.536 152.569 126.84 152.249 126.264C151.929 125.672 151.497 125.224 150.953 124.92C150.409 124.6 149.825 124.44 149.201 124.44C148.577 124.44 148.001 124.592 147.473 124.896C146.945 125.2 146.513 125.648 146.177 126.24C145.857 126.816 145.697 127.504 145.697 128.304C145.697 129.104 145.857 129.808 146.177 130.416C146.513 131.008 146.945 131.464 147.473 131.784C148.017 132.104 148.593 132.264 149.201 132.264C149.825 132.264 150.409 132.112 150.953 131.808C151.497 131.488 151.929 131.04 152.249 130.464C152.569 129.872 152.729 129.168 152.729 128.352Z" fill="#47585B"/>
<g clip-path="url(#clip0)">
<path d="M107.192 0C98.425 0 91.1048 6.39275 89.6518 14.7608L68.8602 14.7605L56.3837 2.41004L51.639 6.13574L60.3516 14.7608H47.9574C46.7359 14.7608 45.6372 15.5029 45.181 16.636C44.7248 17.769 45.0033 19.0655 45.8836 19.9118L74.5687 47.4752V79.0142H64.5364C62.8836 79.0142 61.5434 80.3545 61.5434 82.0073C61.5434 83.66 62.8836 85.0003 64.5364 85.0003H90.5868C92.2392 85.0003 93.5795 83.66 93.5795 82.0073C93.5795 80.3545 92.2392 79.0142 90.5868 79.0142H80.5542V47.4755L96.5625 32.0931C99.6145 34.3789 103.296 35.6164 107.192 35.6164C117.011 35.6164 125 27.6279 125 17.8082C125 7.98857 117.011 0 107.192 0ZM116.896 24.549L112.25 19.9032H118.824C118.519 21.6055 117.849 23.1818 116.896 24.549ZM109.287 12.75V6.17552C110.989 6.48118 112.566 7.15145 113.933 8.10391L109.287 12.75ZM105.097 12.75L100.454 8.10677C101.82 7.15345 103.396 6.48232 105.097 6.1761V12.75ZM109.287 22.8661L113.933 27.512C112.566 28.4644 110.989 29.1347 109.287 29.4403V22.8661ZM112.25 15.713L116.896 11.0672C117.848 12.4343 118.519 14.0107 118.824 15.713H112.25ZM97.4906 11.07L101.181 14.7608H95.7715C96.1298 13.4226 96.7182 12.1779 97.4906 11.07ZM99.7315 20.7466L77.562 42.0495L55.3916 20.7463L99.7315 20.7466ZM105.097 23.8927V29.4432C103.625 29.1819 102.228 28.6493 100.966 27.8623L105.097 23.8927Z" fill="#FFBA08"/>
</g>
<defs>
<clipPath id="clip0">
<rect width="85" height="85" fill="white" transform="translate(40)"/>
</clipPath>
</defs>
</svg>
