<svg width="101" height="145" viewBox="0 0 101 145" fill="none" xmlns="http://www.w3.org/2000/svg">
<path d="M14.3129 128.064C14.3129 128.544 14.2809 128.976 14.2169 129.36H4.49688C4.57688 130.32 4.91288 131.072 5.50488 131.616C6.09688 132.16 6.82488 132.432 7.68888 132.432C8.93688 132.432 9.82488 131.896 10.3529 130.824H13.9769C13.5929 132.104 12.8569 133.16 11.7689 133.992C10.6809 134.808 9.34488 135.216 7.76088 135.216C6.48088 135.216 5.32888 134.936 4.30488 134.376C3.29688 133.8 2.50488 132.992 1.92888 131.952C1.36888 130.912 1.08887 129.712 1.08887 128.352C1.08887 126.976 1.36888 125.768 1.92888 124.728C2.48888 123.688 3.27288 122.888 4.28088 122.328C5.28888 121.768 6.44888 121.488 7.76088 121.488C9.02488 121.488 10.1529 121.76 11.1449 122.304C12.1529 122.848 12.9289 123.624 13.4729 124.632C14.0329 125.624 14.3129 126.768 14.3129 128.064ZM10.8329 127.104C10.8169 126.24 10.5049 125.552 9.89688 125.04C9.28888 124.512 8.54488 124.248 7.66488 124.248C6.83288 124.248 6.12888 124.504 5.55288 125.016C4.99288 125.512 4.64888 126.208 4.52088 127.104H10.8329ZM38.9961 121.512C40.6281 121.512 41.9401 122.016 42.9321 123.024C43.9401 124.016 44.4441 125.408 44.4441 127.2V135H41.0841V127.656C41.0841 126.616 40.8201 125.824 40.2921 125.28C39.7641 124.72 39.0441 124.44 38.1321 124.44C37.2201 124.44 36.4921 124.72 35.9481 125.28C35.4201 125.824 35.1561 126.616 35.1561 127.656V135H31.7961V127.656C31.7961 126.616 31.5321 125.824 31.0041 125.28C30.4761 124.72 29.7561 124.44 28.8441 124.44C27.9161 124.44 27.1801 124.72 26.6361 125.28C26.1081 125.824 25.8441 126.616 25.8441 127.656V135H22.4841V121.704H25.8441V123.312C26.2761 122.752 26.8281 122.312 27.5001 121.992C28.1881 121.672 28.9401 121.512 29.7561 121.512C30.7961 121.512 31.7241 121.736 32.5401 122.184C33.3561 122.616 33.9881 123.24 34.4361 124.056C34.8681 123.288 35.4921 122.672 36.3081 122.208C37.1401 121.744 38.0361 121.512 38.9961 121.512ZM46.7686 128.304C46.7686 126.96 47.0326 125.768 47.5606 124.728C48.1046 123.688 48.8326 122.888 49.7446 122.328C50.6726 121.768 51.7046 121.488 52.8406 121.488C53.8326 121.488 54.6966 121.688 55.4326 122.088C56.1846 122.488 56.7846 122.992 57.2326 123.6V121.704H60.6166V135H57.2326V133.056C56.8006 133.68 56.2006 134.2 55.4326 134.616C54.6806 135.016 53.8086 135.216 52.8166 135.216C51.6966 135.216 50.6726 134.928 49.7446 134.352C48.8326 133.776 48.1046 132.968 47.5606 131.928C47.0326 130.872 46.7686 129.664 46.7686 128.304ZM57.2326 128.352C57.2326 127.536 57.0726 126.84 56.7526 126.264C56.4326 125.672 56.0006 125.224 55.4566 124.92C54.9126 124.6 54.3286 124.44 53.7046 124.44C53.0806 124.44 52.5046 124.592 51.9766 124.896C51.4486 125.2 51.0166 125.648 50.6806 126.24C50.3606 126.816 50.2006 127.504 50.2006 128.304C50.2006 129.104 50.3606 129.808 50.6806 130.416C51.0166 131.008 51.4486 131.464 51.9766 131.784C52.5206 132.104 53.0966 132.264 53.7046 132.264C54.3286 132.264 54.9126 132.112 55.4566 131.808C56.0006 131.488 56.4326 131.04 56.7526 130.464C57.0726 129.872 57.2326 129.168 57.2326 128.352ZM65.6022 120.12C65.0102 120.12 64.5142 119.936 64.1142 119.568C63.7302 119.184 63.5382 118.712 63.5382 118.152C63.5382 117.592 63.7302 117.128 64.1142 116.76C64.5142 116.376 65.0102 116.184 65.6022 116.184C66.1942 116.184 66.6822 116.376 67.0662 116.76C67.4662 117.128 67.6662 117.592 67.6662 118.152C67.6662 118.712 67.4662 119.184 67.0662 119.568C66.6822 119.936 66.1942 120.12 65.6022 120.12ZM67.2582 121.704V135H63.8982V121.704H67.2582ZM75.6659 135.216C74.5779 135.216 73.6019 135.024 72.7379 134.64C71.8739 134.24 71.1859 133.704 70.6739 133.032C70.1779 132.36 69.9059 131.616 69.8579 130.8H73.2419C73.3059 131.312 73.5539 131.736 73.9859 132.072C74.4339 132.408 74.9859 132.576 75.6419 132.576C76.2819 132.576 76.7779 132.448 77.1299 132.192C77.4979 131.936 77.6819 131.608 77.6819 131.208C77.6819 130.776 77.4579 130.456 77.0099 130.248C76.5779 130.024 75.8819 129.784 74.9219 129.528C73.9299 129.288 73.1139 129.04 72.4739 128.784C71.8499 128.528 71.3059 128.136 70.8419 127.608C70.3939 127.08 70.1699 126.368 70.1699 125.472C70.1699 124.736 70.3779 124.064 70.7939 123.456C71.2259 122.848 71.8339 122.368 72.6179 122.016C73.4179 121.664 74.3539 121.488 75.4259 121.488C77.0099 121.488 78.2739 121.888 79.2179 122.688C80.1619 123.472 80.6819 124.536 80.7779 125.88H77.5619C77.5139 125.352 77.2899 124.936 76.8899 124.632C76.5059 124.312 75.9859 124.152 75.3299 124.152C74.7219 124.152 74.2499 124.264 73.9139 124.488C73.5939 124.712 73.4339 125.024 73.4339 125.424C73.4339 125.872 73.6579 126.216 74.1059 126.456C74.5539 126.68 75.2499 126.912 76.1939 127.152C77.1539 127.392 77.9459 127.64 78.5699 127.896C79.1939 128.152 79.7299 128.552 80.1779 129.096C80.6419 129.624 80.8819 130.328 80.8979 131.208C80.8979 131.976 80.6819 132.664 80.2499 133.272C79.8339 133.88 79.2259 134.36 78.4259 134.712C77.6419 135.048 76.7219 135.216 75.6659 135.216ZM85.144 135.168C84.536 135.168 84.032 134.984 83.632 134.616C83.248 134.232 83.056 133.76 83.056 133.2C83.056 132.64 83.248 132.176 83.632 131.808C84.032 131.424 84.536 131.232 85.144 131.232C85.736 131.232 86.224 131.424 86.608 131.808C86.992 132.176 87.184 132.64 87.184 133.2C87.184 133.76 86.992 134.232 86.608 134.616C86.224 134.984 85.736 135.168 85.144 135.168ZM91.3784 135.168C90.7704 135.168 90.2664 134.984 89.8664 134.616C89.4824 134.232 89.2904 133.76 89.2904 133.2C89.2904 132.64 89.4824 132.176 89.8664 131.808C90.2664 131.424 90.7704 131.232 91.3784 131.232C91.9704 131.232 92.4584 131.424 92.8424 131.808C93.2264 132.176 93.4184 132.64 93.4184 133.2C93.4184 133.76 93.2264 134.232 92.8424 134.616C92.4584 134.984 91.9704 135.168 91.3784 135.168ZM97.6128 135.168C97.0048 135.168 96.5008 134.984 96.1008 134.616C95.7168 134.232 95.5248 133.76 95.5248 133.2C95.5248 132.64 95.7168 132.176 96.1008 131.808C96.5008 131.424 97.0048 131.232 97.6128 131.232C98.2048 131.232 98.6928 131.424 99.0768 131.808C99.4608 132.176 99.6528 132.64 99.6528 133.2C99.6528 133.76 99.4608 134.232 99.0768 134.616C98.6928 134.984 98.2048 135.168 97.6128 135.168Z" fill="#47585B"/>
<path d="M69.9377 18.9054L70.0198 19.5365L69.0741 19.7322L68.9483 21.0765H70.081L71.5879 20.9314L72.3657 20.0067L71.5389 19.685L71.0862 19.1641L70.4062 18.0628L70.081 16.5053L68.8032 16.7658L68.4448 17.3147V17.9335L69.0601 18.3548L69.9377 18.9054Z" fill="#FFBA08"/>
<path d="M68.8486 19.4228L68.9168 18.5803L68.1669 18.2569L67.118 18.4998L66.3401 19.748V20.5573H67.2474L68.8486 19.4228Z" fill="#FFBA08"/>
<path d="M47.2599 23.0011L47.0292 23.5955H45.9122V24.1723H46.1779C46.1779 24.1723 46.1936 24.2947 46.2163 24.4555L46.9016 24.3978L47.3299 24.1321L47.4417 23.5955L47.9959 23.5483L48.2144 23.0973L47.7057 22.9924L47.2599 23.0011Z" fill="#FFBA08"/>
<path d="M44.3809 24.0482L44.3372 24.6129L45.1465 24.5447L45.2304 23.9783L44.7445 23.5955L44.3809 24.0482Z" fill="#FFBA08"/>
<path d="M92.9895 42.0604C92.9773 40.8175 92.9143 39.5833 92.7972 38.3684C92.4039 34.3181 91.4355 30.4357 89.9846 26.7962C89.8762 26.5252 89.7766 26.2508 89.6612 25.9833C87.7278 21.4156 85.0131 17.257 81.69 13.6682C81.4715 13.4339 81.2495 13.2032 81.0275 12.9759C80.3999 12.3239 79.7549 11.6876 79.0871 11.0775C71.5319 4.19887 61.498 0 50.4991 0C39.4076 0 29.302 4.27404 21.7259 11.2576C19.9603 12.885 18.3381 14.6611 16.8662 16.563C11.3143 23.7441 8 32.7396 8 42.4991C8 65.9355 27.0662 85 50.5009 85C66.9852 85 81.2967 75.5604 88.3414 61.8066C89.8482 58.8663 91.0212 55.732 91.8113 52.4474C92.0123 51.6136 92.1854 50.7762 92.3357 49.9284C92.764 47.5143 92.9983 45.0321 92.9983 42.4991C93 42.3523 92.9913 42.2072 92.9895 42.0604ZM84.9903 25.0743L85.2368 24.7981C85.5602 25.4257 85.8626 26.0638 86.1511 26.7105L85.749 26.6948L84.9903 26.7997V25.0743ZM78.8494 17.659L78.8564 15.7606C79.5241 16.4686 80.1674 17.1975 80.7827 17.9527L80.0171 19.0924L77.3408 19.068L77.173 18.5103L78.8494 17.659ZM87.6981 31.7083H84.5883L82.6934 30.2976L80.6988 30.4916V31.7083H80.0678L79.386 31.2223L75.9318 30.3465V28.109L71.5547 28.4499L70.1982 29.1788H68.4606L67.6093 29.0932L65.4993 30.2644V32.4687L61.1868 35.5803L61.5452 36.9088H62.4192L62.1902 38.1744L61.5749 38.3999L61.5417 41.7072L65.2686 45.9516H66.8908L66.9887 45.6929H69.9045L70.7453 44.915H72.399L73.3062 45.824L75.771 46.0792L75.4441 49.3568L78.1798 54.1867L76.7394 56.94L76.8373 58.237L77.9718 59.368V62.4866L79.4612 64.4899V67.0805H80.7478C73.5877 75.8716 62.6902 81.5021 50.4974 81.5021C28.9926 81.5039 11.4961 64.0057 11.4961 42.4991C11.4961 37.0853 12.6079 31.925 14.6095 27.235V26.0183L16.0044 24.3244C16.4886 23.4102 17.0078 22.5187 17.562 21.6499L17.6249 22.3578L16.0062 24.3244C15.5045 25.2719 15.036 26.2403 14.6112 27.235V29.455L16.2317 30.2347V33.32L17.7857 35.9718L19.0496 36.1659L19.2121 35.2569L17.721 32.9564L17.4291 30.7206H18.3031L18.672 33.0211L20.8274 36.1659L20.2715 37.1815L21.642 39.2774L25.0455 40.12V39.5694L26.4072 39.7634L26.2778 40.7353L27.3477 40.9311L28.9996 41.3821L31.3333 44.0409L34.3137 44.2664L34.6057 46.698L32.5657 48.1244L32.4695 50.2955L32.1776 51.6241L35.1283 55.3177L35.3538 56.5833C35.3538 56.5833 36.4236 56.8735 36.5548 56.8735C36.6841 56.8735 38.9531 58.5919 38.9531 58.5919V65.2678L39.7625 65.495L39.2118 68.5751L40.5736 70.3914L40.3218 73.4435L42.1206 76.6058L44.4298 78.623L46.7513 78.665L46.9785 77.9186L45.2724 76.4816L45.3703 75.7684L45.6762 74.8944L45.7409 74.0029L44.5871 73.9679L44.005 73.2372L44.963 72.316L45.0923 71.6203L44.0225 71.3143L44.0854 70.6676L45.6098 70.4368L47.9277 69.3233L48.7056 67.8969L51.1372 64.7853L50.5848 62.352L51.3312 61.0567L53.567 61.1248L55.0721 59.9326L55.558 55.2373L57.2275 53.1169L57.5194 51.7552L55.9968 51.2675L54.9917 49.619L51.5567 49.5841L48.8332 48.5457L48.7039 46.6036L47.7949 45.0146L45.3318 44.9779L43.9089 42.7439L42.645 42.1268L42.5804 42.8085L40.2799 42.9449L39.4373 41.7719L37.0372 41.2842L35.0602 43.5689L31.9486 43.041L31.7231 39.5344L29.4523 39.1463L30.3631 37.4262L30.1026 36.4386L27.1187 38.4331L25.2412 38.2041L24.5717 36.7375L24.9808 35.2254L26.0156 33.3183L28.3983 32.1121L32.9992 32.1103L32.9869 33.514L34.6406 34.2832L34.5095 31.8848L35.7017 30.6857L38.107 29.1054L38.2714 27.9936L40.6697 25.4974L43.2202 24.0849L42.9947 23.8996L44.7217 22.2739L45.3545 22.4417L45.6447 22.8053L46.3003 22.0781L46.4611 22.0065L45.7426 21.9051L45.0137 21.6621V20.9629L45.4 20.6465H46.2513L46.6411 20.8178L46.9785 21.4995L47.3911 21.4366V21.3772L47.5099 21.4174L48.7056 21.2338L48.8752 20.65L49.5569 20.8213V21.4541L48.9241 21.8894H48.9259L49.0185 22.5833L51.1844 23.2511C51.1844 23.2511 51.1861 23.2598 51.1896 23.2773L51.6878 23.2354L51.721 22.2967L50.0044 21.5153L49.9065 21.0643L51.3312 20.5783L51.3941 19.2148L49.9048 18.3076L49.8069 16.0088L47.7651 17.0122H47.0205L47.2162 15.2624L44.4368 14.6069L43.2866 15.4757V18.1258L41.2186 18.7813L40.39 20.5084L39.4915 20.6535V18.4439L37.5477 18.1747L36.5757 17.5419L36.1842 16.1102L39.6611 14.0755L41.362 13.558L41.5333 14.7013L42.4807 14.6523L42.5541 14.0772L43.5453 13.9356L43.5628 13.7346L43.1362 13.558L43.0384 12.9497L44.2568 12.8466L44.9927 12.0809L45.0329 12.025L45.0416 12.0285L45.2654 11.7977L47.8263 11.4743L48.9591 12.4358L45.9891 14.0178L49.7684 14.9093L50.2579 13.6455H51.9098L52.4937 12.5442L51.326 12.2522V10.859L47.6638 9.23681L45.136 9.52874L43.7096 10.2752L43.8075 12.0897L42.3164 11.8624L42.0874 10.859L43.5156 9.56195L40.9232 9.4326L40.1785 9.6581L39.8551 10.5321L40.827 10.6965L40.633 11.6684L38.9811 11.7663L38.7224 12.4131L36.3258 12.4795C36.3258 12.4795 36.2593 11.1195 36.1632 11.1195C36.067 11.1195 38.0424 11.0863 38.0424 11.0863L39.4705 9.69131L38.6909 9.30149L37.6543 10.3084L35.9342 10.2105L34.8976 8.78406H32.6933L30.3928 10.5024H32.501L32.6933 11.1195L32.1461 11.6282L34.4798 11.6929L34.8364 12.5354L32.209 12.4375L32.0814 11.789L30.4295 11.4324L29.5537 10.9464L27.5871 10.9622C34.0253 6.27208 41.9423 3.49614 50.4991 3.49614C60.3617 3.49614 69.3731 7.18283 76.2482 13.2399L75.785 14.0685L73.9862 14.773L73.2276 15.5963L73.4024 16.556L74.3306 16.6853L74.89 18.0838L76.4912 17.4388L76.7552 19.3092H76.2727L74.9582 19.1152L73.5003 19.3599L72.0896 21.3527L70.0723 21.6691L69.7804 23.3962L70.6317 23.5972L70.3852 24.7073L68.3819 24.3052L66.5447 24.7073L66.1549 25.7299L66.473 27.8765L67.5516 28.3817L69.3608 28.3712L70.5827 28.2611L70.9551 27.2892L72.864 24.8086L74.1208 25.0656L75.3585 23.9468L75.5892 24.8209L78.6343 26.8749L78.262 27.3748L76.8898 27.3014L77.4177 28.0496L78.262 28.2349L79.2514 27.8223L79.2304 26.6301L79.6692 26.4099L79.3161 26.0358L77.2848 24.903L76.7499 23.3979H78.4386L78.9787 23.9329L80.4331 25.1862L80.4943 26.7018L82.0011 28.3065L82.5623 26.1075L83.6059 25.5376L83.8016 27.3363L84.8208 28.4551L86.8538 28.4202C87.2471 29.4323 87.6002 30.4619 87.9096 31.5125L87.6981 31.7083ZM88.3309 33.6766L88.4533 33.5333C88.504 33.7535 88.5582 33.9738 88.6071 34.1975L88.3309 33.6766Z" fill="#FFBA08"/>
<path d="M14.6112 26.0183V27.235C15.036 26.2421 15.5045 25.2736 16.0062 24.3244L14.6112 26.0183Z" fill="#FFBA08"/>
</svg>
