<svg width="113" height="145" viewBox="0 0 113 145" fill="none" xmlns="http://www.w3.org/2000/svg">
<path d="M18.4649 121.512C20.0969 121.512 21.4089 122.016 22.4009 123.024C23.4089 124.016 23.9129 125.408 23.9129 127.2V135H20.5529V127.656C20.5529 126.616 20.2889 125.824 19.7609 125.28C19.2329 124.72 18.5129 124.44 17.6009 124.44C16.6889 124.44 15.9609 124.72 15.4169 125.28C14.8889 125.824 14.6249 126.616 14.6249 127.656V135H11.2649V127.656C11.2649 126.616 11.0009 125.824 10.4729 125.28C9.94488 124.72 9.22488 124.44 8.31288 124.44C7.38488 124.44 6.64888 124.72 6.10488 125.28C5.57688 125.824 5.31288 126.616 5.31288 127.656V135H1.95288V121.704H5.31288V123.312C5.74488 122.752 6.29688 122.312 6.96888 121.992C7.65688 121.672 8.40888 121.512 9.22488 121.512C10.2649 121.512 11.1929 121.736 12.0089 122.184C12.8249 122.616 13.4569 123.24 13.9049 124.056C14.3369 123.288 14.9609 122.672 15.7769 122.208C16.6089 121.744 17.5049 121.512 18.4649 121.512ZM33.0053 135.216C31.7253 135.216 30.5733 134.936 29.5493 134.376C28.5253 133.8 27.7173 132.992 27.1253 131.952C26.5493 130.912 26.2613 129.712 26.2613 128.352C26.2613 126.992 26.5573 125.792 27.1493 124.752C27.7573 123.712 28.5813 122.912 29.6213 122.352C30.6613 121.776 31.8213 121.488 33.1013 121.488C34.3813 121.488 35.5413 121.776 36.5813 122.352C37.6213 122.912 38.4373 123.712 39.0293 124.752C39.6373 125.792 39.9413 126.992 39.9413 128.352C39.9413 129.712 39.6293 130.912 39.0053 131.952C38.3973 132.992 37.5653 133.8 36.5093 134.376C35.4693 134.936 34.3013 135.216 33.0053 135.216ZM33.0053 132.288C33.6133 132.288 34.1813 132.144 34.7093 131.856C35.2533 131.552 35.6853 131.104 36.0053 130.512C36.3253 129.92 36.4853 129.2 36.4853 128.352C36.4853 127.088 36.1493 126.12 35.4773 125.448C34.8213 124.76 34.0133 124.416 33.0533 124.416C32.0933 124.416 31.2853 124.76 30.6293 125.448C29.9893 126.12 29.6693 127.088 29.6693 128.352C29.6693 129.616 29.9813 130.592 30.6053 131.28C31.2453 131.952 32.0453 132.288 33.0053 132.288ZM41.542 128.304C41.542 126.96 41.806 125.768 42.334 124.728C42.878 123.688 43.614 122.888 44.542 122.328C45.47 121.768 46.502 121.488 47.638 121.488C48.502 121.488 49.326 121.68 50.11 122.064C50.894 122.432 51.518 122.928 51.982 123.552V117.24H55.39V135H51.982V133.032C51.566 133.688 50.982 134.216 50.23 134.616C49.478 135.016 48.606 135.216 47.614 135.216C46.494 135.216 45.47 134.928 44.542 134.352C43.614 133.776 42.878 132.968 42.334 131.928C41.806 130.872 41.542 129.664 41.542 128.304ZM52.006 128.352C52.006 127.536 51.846 126.84 51.526 126.264C51.206 125.672 50.774 125.224 50.23 124.92C49.686 124.6 49.102 124.44 48.478 124.44C47.854 124.44 47.278 124.592 46.75 124.896C46.222 125.2 45.79 125.648 45.454 126.24C45.134 126.816 44.974 127.504 44.974 128.304C44.974 129.104 45.134 129.808 45.454 130.416C45.79 131.008 46.222 131.464 46.75 131.784C47.294 132.104 47.87 132.264 48.478 132.264C49.102 132.264 49.686 132.112 50.23 131.808C50.774 131.488 51.206 131.04 51.526 130.464C51.846 129.872 52.006 129.168 52.006 128.352ZM71.0316 128.064C71.0316 128.544 70.9996 128.976 70.9356 129.36H61.2156C61.2956 130.32 61.6316 131.072 62.2236 131.616C62.8156 132.16 63.5436 132.432 64.4076 132.432C65.6556 132.432 66.5436 131.896 67.0716 130.824H70.6956C70.3116 132.104 69.5756 133.16 68.4876 133.992C67.3996 134.808 66.0636 135.216 64.4796 135.216C63.1996 135.216 62.0476 134.936 61.0236 134.376C60.0156 133.8 59.2236 132.992 58.6476 131.952C58.0876 130.912 57.8076 129.712 57.8076 128.352C57.8076 126.976 58.0876 125.768 58.6476 124.728C59.2076 123.688 59.9916 122.888 60.9996 122.328C62.0076 121.768 63.1676 121.488 64.4796 121.488C65.7436 121.488 66.8716 121.76 67.8636 122.304C68.8716 122.848 69.6476 123.624 70.1916 124.632C70.7516 125.624 71.0316 126.768 71.0316 128.064ZM67.5516 127.104C67.5356 126.24 67.2236 125.552 66.6156 125.04C66.0076 124.512 65.2636 124.248 64.3836 124.248C63.5516 124.248 62.8476 124.504 62.2716 125.016C61.7116 125.512 61.3676 126.208 61.2396 127.104H67.5516ZM76.8441 123.768C77.2761 123.064 77.8361 122.512 78.5241 122.112C79.2281 121.712 80.0281 121.512 80.9241 121.512V125.04H80.0361C78.9801 125.04 78.1801 125.288 77.6361 125.784C77.1081 126.28 76.8441 127.144 76.8441 128.376V135H73.4841V121.704H76.8441V123.768ZM90.5553 121.512C92.1393 121.512 93.4193 122.016 94.3953 123.024C95.3713 124.016 95.8593 125.408 95.8593 127.2V135H92.4993V127.656C92.4993 126.6 92.2353 125.792 91.7073 125.232C91.1793 124.656 90.4593 124.368 89.5473 124.368C88.6193 124.368 87.8833 124.656 87.3393 125.232C86.8113 125.792 86.5473 126.6 86.5473 127.656V135H83.1873V121.704H86.5473V123.36C86.9953 122.784 87.5633 122.336 88.2513 122.016C88.9553 121.68 89.7233 121.512 90.5553 121.512ZM104.958 135.216C103.678 135.216 102.526 134.936 101.502 134.376C100.478 133.8 99.6704 132.992 99.0784 131.952C98.5024 130.912 98.2144 129.712 98.2144 128.352C98.2144 126.992 98.5104 125.792 99.1024 124.752C99.7104 123.712 100.534 122.912 101.574 122.352C102.614 121.776 103.774 121.488 105.054 121.488C106.334 121.488 107.494 121.776 108.534 122.352C109.574 122.912 110.39 123.712 110.982 124.752C111.59 125.792 111.894 126.992 111.894 128.352C111.894 129.712 111.582 130.912 110.958 131.952C110.35 132.992 109.518 133.8 108.462 134.376C107.422 134.936 106.254 135.216 104.958 135.216ZM104.958 132.288C105.566 132.288 106.134 132.144 106.662 131.856C107.206 131.552 107.638 131.104 107.958 130.512C108.278 129.92 108.438 129.2 108.438 128.352C108.438 127.088 108.102 126.12 107.43 125.448C106.774 124.76 105.966 124.416 105.006 124.416C104.046 124.416 103.238 124.76 102.582 125.448C101.942 126.12 101.622 127.088 101.622 128.352C101.622 129.616 101.934 130.592 102.558 131.28C103.198 131.952 103.998 132.288 104.958 132.288Z" fill="#47585B"/>
<path d="M46.9638 34.418C46.1761 34.418 45.5376 35.0566 45.5376 35.8442V79.0106C45.5376 79.7982 46.1761 80.4368 46.9638 80.4368C47.7514 80.4368 48.3899 79.7982 48.3899 79.0106V35.8442C48.3899 35.0564 47.7514 34.418 46.9638 34.418Z" fill="#FFBA08"/>
<path d="M53.4262 34.418C52.6385 34.418 52 35.0566 52 35.8442V79.0106C52 79.7982 52.6385 80.4368 53.4262 80.4368C54.2138 80.4368 54.8524 79.7982 54.8524 79.0106V35.8442C54.8524 35.0564 54.2138 34.418 53.4262 34.418Z" fill="#FFBA08"/>
<path d="M59.4262 34.418C58.6385 34.418 58 35.0566 58 35.8442V79.0106C58 79.7982 58.6385 80.4368 59.4262 80.4368C60.2138 80.4368 60.8524 79.7982 60.8524 79.0106V35.8442C60.8524 35.0564 60.2138 34.418 59.4262 34.418Z" fill="#FFBA08"/>
<path d="M66.0364 34.418C65.2487 34.418 64.6102 35.0566 64.6102 35.8442V79.0106C64.6102 79.7982 65.2487 80.4368 66.0364 80.4368C66.824 80.4368 67.4626 79.7982 67.4626 79.0106V35.8442C67.4626 35.0564 66.8238 34.418 66.0364 34.418Z" fill="#FFBA08"/>
<path d="M83.0258 82.1476H74.2799V31.4706C74.2799 30.6829 73.6413 30.0444 72.8537 30.0444H71.2278V17.0186C71.2278 16.2309 70.5893 15.5924 69.8017 15.5924H67.3543V5.60909C67.3543 4.82145 66.7158 4.1829 65.9281 4.1829H57.9263C57.9263 4.1829 57.2877 4.1829 56.5001 4.1829C55.0739 4.1829 55.0739 6.93962 55.0739 4.1829H47.0721C46.2844 4.1829 45.6459 4.82145 45.6459 5.60909V15.5924H43.1986C42.4109 15.5924 41.7724 16.2309 41.7724 17.0186V30.0444H40.1465C39.3589 30.0444 38.7203 30.6829 38.7203 31.4706V82.1476H29.9744C29.1868 82.1476 28.5482 82.7862 28.5482 83.5738C28.5482 84.3614 29.1868 85 29.9744 85H83.0258C83.8134 85 84.452 84.3614 84.452 83.5738C84.452 82.7862 83.8132 82.1476 83.0258 82.1476ZM48.4983 7.03527H64.502V15.5924H63.1663V10.394C63.1663 9.6064 62.5277 8.96785 61.7401 8.96785C60.9525 8.96785 60.3139 9.6064 60.3139 10.394V15.5924H57.9263V10.394C57.9263 9.6064 57.2877 8.96785 56.5001 8.96785C55.7125 8.96785 55.0739 9.6064 55.0739 10.394V15.5924H52.6865V10.394C52.6865 9.6064 52.0479 8.96785 51.2603 8.96785C50.4727 8.96785 49.8341 9.6064 49.8341 10.394V15.5924H48.4985L48.4983 7.03527ZM44.6247 18.4447H68.3755V30.0444H65.7861V20.6949C65.7861 19.9072 65.1475 19.2687 64.3599 19.2687C63.5723 19.2687 62.9337 19.9072 62.9337 20.6949V30.0444H60.5461V20.6949C60.5461 19.9072 59.9075 19.2687 59.1199 19.2687C58.3323 19.2687 57.6937 19.9072 57.6937 20.6949V30.0444H55.3063V20.6949C55.3063 19.9072 54.6677 19.2687 53.8801 19.2687C53.0925 19.2687 52.4539 19.9072 52.4539 20.6949V30.0444H50.0665V20.6949C50.0665 19.9072 49.4279 19.2687 48.6403 19.2687C47.8527 19.2687 47.2141 19.9072 47.2141 20.6949V30.0444H44.6247V18.4447ZM41.5727 82.1476V32.8967H71.4275V82.1476H41.5727Z" fill="#FFBA08"/>
</svg>
