<svg width="431" height="293" viewBox="0 0 431 293" fill="none" xmlns="http://www.w3.org/2000/svg">
<g clip-path="url(#clip0)" filter="url(#filter0_d)">
<path d="M386.076 196.029C381.661 197.4 373.984 198.315 365.123 198.909C341.031 200.531 308.168 199.832 308.168 199.832C308.168 199.832 138.775 204.996 15.0966 146.291C15.0966 146.291 -2.78398 135.678 14.9528 123.586C17.6809 121.783 20.5625 120.224 23.564 118.928L23.7833 118.73C25.8174 117.037 27.9988 115.529 30.3013 114.225C37.0719 110.329 48.3927 105.884 61.7339 108.867L390.916 180.02C390.916 180.02 402.505 190.913 386.076 196.029Z" fill="#FFBA08" fill-opacity="0.5"/>
<path d="M321.203 168.199L393.292 122.478L423.646 129.387L390.916 180.02C390.916 180.02 321.545 176.941 321.203 168.199Z" fill="#FFBA08" fill-opacity="0.5"/>
<path d="M147.797 129.039L288.274 97.4269L310.344 103.266L246.332 128.15L225.641 149.016L147.797 129.039Z" fill="#FFBA08" fill-opacity="0.5"/>
<path d="M365.123 198.909C341.031 200.531 308.168 199.832 308.168 199.832C308.168 199.832 138.775 204.996 15.0966 146.291C15.0966 146.291 -2.78396 135.678 14.9528 123.586L14.9979 123.828C14.9979 123.828 41.3065 143.713 170.821 165.948L365.123 198.909Z" fill="#F5F8FA"/>
<path d="M342.927 196.678L403.494 225.221L419.134 224.309L383.573 194.513C383.573 194.513 339.294 182.602 342.927 196.678Z" fill="#FFBA08" fill-opacity="0.5"/>
<path d="M37.2993 127.707C34.3439 127.602 27.838 122.289 23.8054 118.731C25.8396 117.038 28.0209 115.53 30.3235 114.226C33.5787 117.009 39.3919 121.542 42.7567 121.553C47.6132 121.608 41.7504 127.861 37.2993 127.707Z" fill="#F5F8FA"/>
<path d="M311.134 282.702L271.287 282.701L163.511 201.428L143.505 186.338L133.788 179.006C153.526 164.018 229.485 190.096 229.485 190.096C230.896 191.421 231.258 193.518 231.071 195.805C230.718 200.086 228.441 205.013 227.571 206.784C227.361 207.218 227.233 207.447 227.233 207.447L311.134 282.702Z" fill="#FFBA08" fill-opacity="0.5"/>
<path d="M384.88 95.5914L377.757 99.5975L382.332 92.2133C381.199 91.2068 379.763 90.6069 378.251 90.5085L378.14 90.5027C377.662 90.487 377.185 90.4263 376.718 90.3214L374.308 91.6816L375.401 89.9141C373.78 89.247 372.409 88.085 371.485 86.5935L367.174 89.0379L370.059 84.3735C367.774 81.3119 364.579 79.3419 360.956 79.1521C356.616 78.9246 352.614 81.3052 349.907 85.2044C349.103 86.3725 348.005 87.3067 346.724 87.9118C345.443 88.517 344.024 88.7716 342.613 88.6497L342.382 88.6376C337.59 88.3865 333.421 93.62 333.069 100.331C332.717 107.042 336.316 112.682 341.109 112.934C342.162 112.985 343.213 112.779 344.168 112.333C345.842 111.626 347.648 111.291 349.463 111.35C351.279 111.41 353.059 111.864 354.682 112.679C356.053 113.384 357.556 113.792 359.094 113.876C360.632 113.961 362.171 113.72 363.61 113.169C365.295 112.541 367.096 112.282 368.889 112.411C370.683 112.539 372.427 113.052 374.006 113.914C374.905 114.446 375.917 114.753 376.96 114.812C381.752 115.064 385.921 109.83 386.273 103.119C386.447 100.533 385.968 97.9439 384.88 95.5914Z" fill="#F5F8FA"/>
<path opacity="0.03" d="M370.98 112.688C368.501 112.082 365.899 112.228 363.503 113.106C362.066 113.661 360.528 113.907 358.99 113.826C357.452 113.746 355.948 113.341 354.578 112.638C352.955 111.82 351.174 111.366 349.359 111.306C347.543 111.246 345.737 111.583 344.064 112.292C343.106 112.737 342.055 112.943 341 112.892C336.744 112.669 333.427 108.187 332.987 102.485C333.872 101.911 334.635 101.169 335.236 100.302C337.943 96.4072 341.944 94.0266 346.285 94.2541C350.626 94.4816 354.319 97.212 356.602 101.337C357.284 102.583 358.277 103.631 359.485 104.379C360.692 105.126 362.073 105.547 363.491 105.601L363.602 105.607C366.968 105.775 369.76 108.645 370.98 112.688Z" fill="black"/>
<path d="M101.055 64.966L97.5047 66.9652L99.7872 63.284C99.2231 62.7793 98.5063 62.4785 97.7513 62.4296L97.6981 62.4268C97.4589 62.4168 97.2211 62.3865 96.9871 62.3362L95.7868 63.0121L96.3299 62.1504C95.5208 61.8181 94.8371 61.2387 94.3761 60.4948L92.2269 61.7173L93.6824 59.3947C93.1668 58.6496 92.4917 58.0291 91.7063 57.5784C90.9208 57.1276 90.0447 56.8579 89.1419 56.789C86.9783 56.6756 84.9822 57.8617 83.6487 59.8079C83.2475 60.3921 82.6984 60.8591 82.0576 61.161C81.4168 61.4629 80.7074 61.5889 80.002 61.5261L79.8868 61.5201C77.497 61.3949 75.4172 64.0096 75.2418 67.3562C75.0664 70.7028 76.8618 73.5162 79.2515 73.6414C79.7772 73.6673 80.3013 73.5649 80.7787 73.3431C81.6133 72.9892 82.5149 72.8213 83.4207 72.8511C84.3266 72.8809 85.2151 73.1077 86.0246 73.5157C86.7062 73.8628 87.453 74.0629 88.2168 74.1029C88.9805 74.1429 89.7441 74.022 90.4583 73.7481C91.299 73.4342 92.1973 73.3051 93.0923 73.3697C93.9872 73.4342 94.8577 73.6909 95.6447 74.1222C96.0928 74.385 96.5966 74.538 97.1151 74.5687C99.5048 74.6939 101.584 72.0836 101.76 68.7371C101.845 67.4407 101.602 66.1439 101.055 64.966Z" fill="#F5F8FA"/>
<path opacity="0.03" d="M94.1216 73.495C92.8846 73.19 91.5847 73.2629 90.3895 73.7044C89.6748 73.9766 88.9116 74.0972 88.148 74.0587C87.3758 74.018 86.6212 73.8131 85.9343 73.4576C85.1242 73.0511 84.2356 72.8255 83.3298 72.7965C82.424 72.7675 81.5227 72.9357 80.6882 73.2895C80.2123 73.5113 79.6897 73.6137 79.1654 73.588C77.0417 73.4767 75.385 71.2402 75.165 68.3981C75.6049 68.1091 75.9863 67.7395 76.2891 67.3087C77.6359 65.3632 79.632 64.1771 81.7823 64.2898C83.9326 64.4025 85.7856 65.7769 86.9319 67.8264C87.2729 68.4492 87.7697 68.9726 88.3737 69.3453C88.9777 69.7179 89.6681 69.9269 90.3772 69.9519L90.4348 69.9549C92.1063 70.0425 93.5115 71.4781 94.1216 73.495Z" fill="black"/>
<path d="M248.851 27.489L241.727 31.4951L246.302 24.111C245.169 23.1044 243.733 22.5045 242.222 22.4062L242.111 22.4004C241.632 22.3847 241.156 22.3239 240.689 22.219L238.279 23.5792L239.372 21.8118C237.75 21.1446 236.38 19.9827 235.456 18.4911L231.144 20.9355L234.029 16.2712C231.745 13.2096 228.549 11.2396 224.927 11.0498C220.586 10.8223 216.585 13.2028 213.877 17.1021C213.074 18.2701 211.976 19.2043 210.695 19.8095C209.413 20.4147 207.995 20.6693 206.584 20.5474L206.353 20.5353C201.56 20.2841 197.391 25.5176 197.04 32.2285C196.688 38.9394 200.287 44.58 205.08 44.8312C206.133 44.883 207.183 44.6768 208.139 44.2305C209.812 43.5235 211.619 43.1883 213.434 43.2481C215.249 43.3079 217.03 43.7612 218.653 44.5767C220.023 45.2814 221.526 45.6893 223.065 45.7737C224.603 45.8582 226.142 45.6174 227.581 45.0669C229.266 44.4384 231.066 44.1797 232.86 44.3082C234.653 44.4368 236.398 44.9496 237.976 45.812C238.875 46.3432 239.888 46.6511 240.93 46.71C245.723 46.9612 249.892 41.7277 250.243 35.0168C250.417 32.4302 249.938 29.8416 248.851 27.489Z" fill="#F5F8FA"/>
<path d="M75.9688 199.839L68.8456 203.845L73.4206 196.461C72.2875 195.454 70.8515 194.854 69.3397 194.756L69.2289 194.75C68.7503 194.734 68.2742 194.674 67.8069 194.569L65.3971 195.929L66.49 194.161C64.8683 193.494 63.498 192.332 62.5739 190.841L58.2623 193.285L61.1476 188.621C58.8628 185.559 55.6672 183.589 52.045 183.399C47.7044 183.172 43.7029 185.553 40.9956 189.452C40.1921 190.62 39.0939 191.554 37.8127 192.159C36.5315 192.764 35.1131 193.019 33.7017 192.897L33.4712 192.885C28.6784 192.634 24.5096 197.867 24.1579 204.578C23.8062 211.289 27.4051 216.93 32.1979 217.181C33.2512 217.233 34.3012 217.027 35.257 216.58C36.9303 215.873 38.7369 215.538 40.5521 215.598C42.3673 215.658 44.1478 216.111 45.771 216.926C47.1413 217.631 48.6445 218.039 50.1828 218.123C51.7211 218.208 53.2599 217.967 54.6991 217.417C56.3841 216.788 58.1843 216.529 59.9778 216.658C61.7713 216.787 63.5162 217.299 65.0944 218.162C65.9932 218.693 67.0061 219.001 68.0483 219.06C72.841 219.311 77.0098 214.077 77.3615 207.367C77.5354 204.78 77.0564 202.191 75.9688 199.839Z" fill="#F5F8FA"/>
<path opacity="0.03" d="M234.951 44.5853C232.472 43.9798 229.869 44.1254 227.473 45.0034C226.036 45.559 224.499 45.8046 222.961 45.724C221.423 45.6434 219.919 45.2384 218.548 44.5357C216.926 43.7181 215.145 43.2637 213.329 43.2039C211.514 43.1441 209.707 43.4804 208.034 44.1894C207.076 44.6342 206.025 44.8402 204.971 44.7899C200.714 44.5668 197.397 40.0848 196.958 34.3828C197.842 33.8083 198.606 33.0667 199.206 32.1996C201.913 28.3048 205.915 25.9243 210.256 26.1518C214.596 26.3792 218.29 29.1096 220.572 33.2348C221.254 34.4811 222.248 35.5291 223.455 36.2765C224.663 37.0238 226.043 37.4451 227.462 37.4991L227.573 37.5049C230.938 37.6724 233.731 40.5425 234.951 44.5853Z" fill="black"/>
<path opacity="0.03" d="M62.0688 216.935C59.5901 216.33 56.9875 216.475 54.5913 217.353C53.1546 217.909 51.6169 218.154 50.0788 218.074C48.5408 217.993 47.0372 217.588 45.6664 216.885C44.0439 216.068 42.2631 215.613 40.4476 215.554C38.6321 215.494 36.8252 215.83 35.1524 216.539C34.1946 216.984 33.1435 217.19 32.0889 217.14C27.8326 216.917 24.5153 212.435 24.0761 206.733C24.9602 206.158 25.7239 205.416 26.3245 204.549C29.0316 200.655 33.0331 198.274 37.3737 198.501C41.7142 198.729 45.4078 201.459 47.6902 205.585C48.3725 206.831 49.3658 207.879 50.5733 208.626C51.7809 209.374 53.1613 209.795 54.58 209.849L54.6909 209.855C58.0564 210.022 60.8492 212.892 62.0688 216.935Z" fill="black"/>
</g>
<defs>
<filter id="filter0_d" x="-4" y="0" width="438.745" height="300.205" filterUnits="userSpaceOnUse" color-interpolation-filters="sRGB">
<feFlood flood-opacity="0" result="BackgroundImageFix"/>
<feColorMatrix in="SourceAlpha" type="matrix" values="0 0 0 0 0 0 0 0 0 0 0 0 0 0 0 0 0 0 127 0" result="hardAlpha"/>
<feOffset dy="4"/>
<feGaussianBlur stdDeviation="2"/>
<feComposite in2="hardAlpha" operator="out"/>
<feColorMatrix type="matrix" values="0 0 0 0 0 0 0 0 0 0 0 0 0 0 0 0 0 0 0.25 0"/>
<feBlend mode="normal" in2="BackgroundImageFix" result="effect1_dropShadow"/>
<feBlend mode="normal" in="SourceGraphic" in2="effect1_dropShadow" result="shape"/>
</filter>
<clipPath id="clip0">
<rect width="417.147" height="270.744" fill="white" transform="translate(14.1697) rotate(3)"/>
</clipPath>
</defs>
</svg>
